<svg xmlns="http://www.w3.org/2000/svg" xmlns:xlink="http://www.w3.org/1999/xlink" width="345" height="122" viewBox="0 0 345 122"><defs><path id="s0fe90f__a" d="M0 130h625V0H0z"/></defs><g fill="none" fill-rule="evenodd" transform="translate(0 1)"><path fill="#498BC9" d="M443.474 112.241C442.991 82.756 419.02 59 389.5 59c-29.519 0-53.49 23.756-53.973 53.241H279V127l221-.558v-14.2h-56.526z"/><path stroke="#12344C" stroke-width="2" d="M332 103c0-28.167 22.834-51 51-51s51 22.833 51 51"/><path stroke="#12344C" stroke-width="2" d="M340 103c0-28.167 19.251-51 43-51 23.748 0 43 22.833 43 51m-148 18v-17h209v16.753"/><path stroke="#18344D" stroke-width="2" d="M298 7a2 2 0 1 1-4 0 2 2 0 0 1 4 0zm-1.999 9L296 9m-4 7.001h8M288 55h17m-19 25 22 .05m-17-43.015 11-.032"/><path stroke="#12344C" stroke-width="2" d="M289 87.568 294.457 20h3.678L305 105"/><path stroke="#18344D" stroke-width="2" d="M301 3c2.667 1.933 2.667 5.067 0 7m-10 0c-2.667-1.933-2.667-5.067 0-7m13-3c4 3.59 4 9.41 0 13m-16 0c-4-3.59-4-9.41 0-13m-49 18h-9m105 7h-9"/><path fill="#498BC9" d="M254 49v74l32-.428V49z"/><path stroke="#18344D" stroke-width="2" d="M270 55c0-2.762-2.015-5-4.5-5s-4.5 2.238-4.5 5"/><path stroke="#18344D" stroke-width="2" d="M282 86.197V45h-32v74m32-64h-32m32 15h-32m25-11v7m-5-7v7m-9-7v7m4-7v7m-9-7v7m14 4v49m-4-49v49m-5-49v49"/><path fill="#E8415E" d="M240 102.5c0 5.799 4.7 10.5 10.5 10.5s10.5-4.701 10.5-10.5c0-5.798-4.7-10.5-10.5-10.5S240 96.702 240 102.5"/><path stroke="#18344D" stroke-width="2" d="M251 119V96m0 13 5-5m-5 0-5-5"/><path fill="#E43859" d="m272 114-6.372-18L259 114z"/><path stroke="#18344D" stroke-width="2" d="M265 119v-13"/><path fill="#FEFEFE" d="M379.996 69.32v-.279L376.487 63l-43.98.005L329 69.047l.01.167.004 50.443L380 120z"/><path fill="#E43859" d="m332.032 124.644-.003-51.426-.029-.406 3.95-6.806L381.063 66l3.933 6.774L385 125z"/><path fill="#FEFEFE" d="M381.639 65h-1.161l-43.927.006h-1.16l-.582 1.003-3.503 6.038-.306.527.038.607.007.103.004 50.35v1.996l2 .014 50.924.342L386 126v-2.024l-.003-50.65v-.818l-.272-.467-3.504-6.037-.582-1.003zm-1.152 2 3.51 6.041v.28L384 124l-50.985-.342-.004-50.443-.011-.167 3.507-6.042 43.98-.006z"/><mask id="s0fe90f__b" fill="#fff"><use xlink:href="#s0fe90f__a"/></mask><path fill="#FEFEFE" d="M276 120h18V92h-18z" mask="url(#s0fe90f__b)"/><path stroke="#18344D" stroke-width="2" d="M293 92v28m-17 0V92" mask="url(#s0fe90f__b)"/><path fill="#FEFEFE" d="m296 91-1.529-5H275.53L274 91z" mask="url(#s0fe90f__b)"/><path stroke="#18344D" stroke-width="2" d="m296 91-1.529-5H275.53L274 91zm-8 29v-8.444c0-1.964-1.567-3.556-3.5-3.556s-3.5 1.592-3.5 3.556V120" mask="url(#s0fe90f__b)"/><path stroke="#13364D" stroke-width="2" d="m380 120-.004-50.68v-.279L376.487 63l-43.98.005L329 69.047l.011.167.003 50.443M335 69l-3-6m4 6 .004 28M348 80a2 2 0 1 0-4 0" mask="url(#s0fe90f__b)"/><path stroke="#13364D" stroke-width="2" d="m347.999 80 .001 3.999-3.999.001-.001-4m4 14a2 2 0 1 0-4 0m4 0v3.999l-3.999.001-.001-4m4 15a2 2 0 1 0-4 0m4 0v3.999l-3.999.001-.001-4m35-40-50 .007" mask="url(#s0fe90f__b)"/><path fill="#498BC9" d="m56.351 92.078-1.8-15.5H50.37l-1.801 15.5H45.36L43.56 66h-4.182l-1.8 26.078H29V123l105-.246V92.078z" mask="url(#s0fe90f__b)"/><path fill="#FEFEFE" d="M309.01 97 298 105.517v14.49h11.01V121l39.99-.858-.333-14.875-9.72-8.267z" mask="url(#s0fe90f__b)"/><path stroke="#13364D" stroke-width="2" d="M349 105h-50m39-8-11 8.272V120" mask="url(#s0fe90f__b)"/><path stroke="#13364D" stroke-width="2" d="M349 120v-14.727L337.904 97h-28.808L298 105.273V120" mask="url(#s0fe90f__b)"/><path stroke="#13364D" stroke-width="2" d="M307 120v-10.161c0-1.016-.896-1.839-2-1.839-1.105 0-2 .823-2 1.839V120" mask="url(#s0fe90f__b)"/><g mask="url(#s0fe90f__b)"><path fill="#4588C7" d="M314 120v-10.161c0-1.016-.896-1.839-2-1.839-1.105 0-2 .823-2 1.839V120"/><path stroke="#13364D" stroke-width="2" d="M314 120v-10.161c0-1.016-.896-1.839-2-1.839-1.105 0-2 .823-2 1.839V120"/></g><path stroke="#13364D" stroke-width="2" d="M322 120v-10.161c0-1.016-.896-1.839-2-1.839-1.105 0-2 .823-2 1.839V120" mask="url(#s0fe90f__b)"/><g mask="url(#s0fe90f__b)"><path fill="#E63E5E" d="M336 120v-10.161c0-1.016-.896-1.839-2-1.839-1.105 0-2 .823-2 1.839V120"/><path stroke="#13364D" stroke-width="2" d="M336 120v-10.161c0-1.016-.896-1.839-2-1.839-1.105 0-2 .823-2 1.839V120"/></g><path stroke="#13364D" stroke-width="2" d="M344 120v-10.161c0-1.016-.896-1.839-2-1.839-1.105 0-2 .823-2 1.839V120" mask="url(#s0fe90f__b)"/><path fill="#E43859" d="M62 115.5a6.5 6.5 0 1 1-13 0 6.5 6.5 0 1 1 13 0" mask="url(#s0fe90f__b)"/><path fill="#E43859" d="M73 113.5a8.5 8.5 0 1 1-8.5-8.5 8.5 8.5 0 0 1 8.5 8.5" mask="url(#s0fe90f__b)"/><path stroke="#18344D" stroke-width="2" d="m62 120 2-11m-6 11-5-7m11 7 4-8" mask="url(#s0fe90f__b)"/><path stroke="#15354C" stroke-width="2" d="M25 120V89h108M31 119V89" mask="url(#s0fe90f__b)"/><path stroke="#15354C" stroke-width="2" d="M40 95.5a2.5 2.5 0 1 1-4.999.001A2.5 2.5 0 0 1 40 95.5zm12 0a2.5 2.5 0 1 1-4.999.001A2.5 2.5 0 0 1 52 95.5zM42 89l-1.851-26H35.85L34 89m19-1-1.851-15H46.85L45 88m-5-53h21M32 24h18M34 48h11M34 58h6m20-7h12m-20 9h7m-14 9h6" mask="url(#s0fe90f__b)"/><path fill="#E43859" d="m203 63.78-2.392-6.41h-.372C200.21 49.43 193.778 43 185.844 43H150.97c-7.934 0-14.367 6.43-14.392 14.37h-.187L134 63.78h4.883v58.954l60.029.266V63.78H203z" mask="url(#s0fe90f__b)"/><path stroke="#13364D" stroke-width="2" d="M193 60h-59m33 0v59m-34-59v59m60 0V60m-50 19v-7.8c0-1.214-.895-2.2-2-2.2s-2 .986-2 2.2V79" mask="url(#s0fe90f__b)"/><g mask="url(#s0fe90f__b)"><path fill="#4588C7" d="M151 79v-7.8c0-1.214-.895-2.2-2-2.2s-2 .986-2 2.2V79"/><path stroke="#13364D" stroke-width="2" d="M151 79v-7.8c0-1.214-.895-2.2-2-2.2s-2 .986-2 2.2V79"/></g><path stroke="#13364D" stroke-width="2" d="M160 79v-7.8c0-1.214-.895-2.2-2-2.2s-2 .986-2 2.2V79" mask="url(#s0fe90f__b)"/><g mask="url(#s0fe90f__b)"><path fill="#E63E5E" d="M178 79v-7.8c0-1.214-.895-2.2-2-2.2s-2 .986-2 2.2V79"/><path stroke="#13364D" stroke-width="2" d="M178 79v-7.8c0-1.214-.895-2.2-2-2.2s-2 .986-2 2.2V79"/></g><path stroke="#13364D" stroke-width="2" d="M187 79v-7.8c0-1.214-.895-2.2-2-2.2s-2 .986-2 2.2V79m-50 0h60m-50 20v-7.8c0-1.214-.895-2.2-2-2.2s-2 .986-2 2.2V99" mask="url(#s0fe90f__b)"/><g mask="url(#s0fe90f__b)"><path fill="#FEFEFE" d="M151 99v-7.8c0-1.214-.895-2.2-2-2.2s-2 .986-2 2.2V99"/><path stroke="#13364D" stroke-width="2" d="M151 99v-7.8c0-1.214-.895-2.2-2-2.2s-2 .986-2 2.2V99"/></g><g mask="url(#s0fe90f__b)"><path fill="#E43859" d="M160 99v-7.8c0-1.214-.895-2.2-2-2.2s-2 .986-2 2.2V99"/><path stroke="#13364D" stroke-width="2" d="M160 99v-7.8c0-1.214-.895-2.2-2-2.2s-2 .986-2 2.2V99"/></g><g mask="url(#s0fe90f__b)"><path fill="#498BC9" d="M178 99v-7.8c0-1.214-.895-2.2-2-2.2s-2 .986-2 2.2V99"/><path stroke="#13364D" stroke-width="2" d="M178 99v-7.8c0-1.214-.895-2.2-2-2.2s-2 .986-2 2.2V99"/></g><path stroke="#13364D" stroke-width="2" d="M187 99v-7.8c0-1.214-.895-2.2-2-2.2s-2 .986-2 2.2V99m-50 0h60" mask="url(#s0fe90f__b)"/><g mask="url(#s0fe90f__b)"><path fill="#E43859" d="M143 119v-7.8c0-1.214-.895-2.2-2-2.2s-2 .986-2 2.2v7.8"/><path stroke="#13364D" stroke-width="2" d="M143 119v-7.8c0-1.214-.895-2.2-2-2.2s-2 .986-2 2.2v7.8"/></g><g mask="url(#s0fe90f__b)"><path fill="#FEFEFE" d="M151 119v-7.8c0-1.214-.895-2.2-2-2.2s-2 .986-2 2.2v7.8"/><path stroke="#13364D" stroke-width="2" d="M151 119v-7.8c0-1.214-.895-2.2-2-2.2s-2 .986-2 2.2v7.8"/></g><path stroke="#13364D" stroke-width="2" d="M160 119v-7.8c0-1.214-.895-2.2-2-2.2s-2 .986-2 2.2v7.8" mask="url(#s0fe90f__b)"/><g mask="url(#s0fe90f__b)"><path fill="#FEFEFE" d="M178 119v-7.8c0-1.214-.895-2.2-2-2.2s-2 .986-2 2.2v7.8"/><path stroke="#13364D" stroke-width="2" d="M178 119v-7.8c0-1.214-.895-2.2-2-2.2s-2 .986-2 2.2v7.8"/></g><g mask="url(#s0fe90f__b)"><path fill="#498BC9" d="M187 119v-7.8c0-1.214-.895-2.2-2-2.2s-2 .986-2 2.2v7.8"/><path stroke="#13364D" stroke-width="2" d="M187 119v-7.8c0-1.214-.895-2.2-2-2.2s-2 .986-2 2.2v7.8"/></g><path stroke="#18344D" stroke-width="2" d="m197 59-2.392-6h-64.216L128 59zm-31-6-2 7" mask="url(#s0fe90f__b)"/><path stroke="#13364D" stroke-width="2" d="M195 53c0-7.732-6.492-14-14.5-14S166 45.268 166 53m-35 0c0-7.732 6.41-14 14.316-14H180" mask="url(#s0fe90f__b)"/><path fill="#E8415E" d="M183 45.5a2.5 2.5 0 1 1-5 0 2.5 2.5 0 0 1 5 0" mask="url(#s0fe90f__b)"/><path stroke="#18344D" stroke-width="2" d="M183 45.5a2.5 2.5 0 1 1-5 0 2.5 2.5 0 0 1 5 0z" mask="url(#s0fe90f__b)"/><path fill="#FEFEFE" d="M76 72.627 82.944 57h19.375l6.943 15.627v19.687h9.374l5.363 10.67L124 118.6H83.94v.03L76 119V72.627z" mask="url(#s0fe90f__b)"/><path stroke="#18344D" stroke-width="2" d="M124 104H84m29 16v-16m5-11-5 11m11 15v-15.447L118.644 93H89.357L84 103.553h.001V119" mask="url(#s0fe90f__b)"/><path stroke="#18344D" stroke-width="2" d="M92 111.5a2.5 2.5 0 1 0 5 0 2.5 2.5 0 0 0-5 0zm10 0a2.5 2.5 0 1 0 5 0 2.5 2.5 0 0 0-5 0zM76 73h33M90 93V73m-7-16 7 16m-14 46V72.627L82.889 57h19.222L109 72.627v19.687" mask="url(#s0fe90f__b)"/><path stroke="#18344D" stroke-width="2" d="M105 78c0 1.105 1.118 2 2.5 2 1.38 0 2.5-.895 2.5-2m-5 0v-5m-5 5c0 1.105 1.118 2 2.5 2 1.38 0 2.5-.895 2.5-2m-5 0v-5m-5 5c0 1.105 1.118 2 2.5 2 1.38 0 2.5-.895 2.5-2m-5 0v-5m-5 5c0 1.105 1.118 2 2.5 2 1.38 0 2.5-.895 2.5-2m-5 0v-5" mask="url(#s0fe90f__b)"/><path fill="#E8415E" d="M81 84a2 2 0 1 0 4 0 2 2 0 0 0-4 0" mask="url(#s0fe90f__b)"/><path stroke="#18344D" stroke-width="2" d="M81 84.5a2.5 2.5 0 1 0 5 0 2.5 2.5 0 0 0-5 0z" mask="url(#s0fe90f__b)"/><path fill="#4588C7" d="M82 105.5a8.5 8.5 0 1 0 17 0 8.5 8.5 0 0 0-17 0" mask="url(#s0fe90f__b)"/><path stroke="#18344D" stroke-width="2" d="M90 119v-19m0 13 5-5m-4 0-5-5" mask="url(#s0fe90f__b)"/><path fill="#E43859" d="m21 114-6.372-18L8 114z" mask="url(#s0fe90f__b)"/><path stroke="#18344D" stroke-width="2" d="M14 119v-13" mask="url(#s0fe90f__b)"/><path fill="#FEFEFE" d="M226 96.718V122h-37V96.581L195.292 87h24.416z" mask="url(#s0fe90f__b)"/><path stroke="#18344D" stroke-width="2" d="M225 96.718V122h-37V96.581L194.292 87h24.416zM194 87l6 10m-12-1h37m-24 0v25m-4-25v24m-5-24v25" mask="url(#s0fe90f__b)"/><path fill="#FEFEFE" d="M219 81.271V121h22V81.056L237.26 66h-14.52z" mask="url(#s0fe90f__b)"/><path stroke="#18344D" stroke-width="2" d="M219 81.271V121h22V81.056L237.26 66h-14.52z" mask="url(#s0fe90f__b)"/><g mask="url(#s0fe90f__b)"><path fill="#FEFEFE" d="m237 66-4 15"/><path stroke="#18344D" stroke-width="2" d="m237 66-4 15"/></g><g mask="url(#s0fe90f__b)"><path fill="#FEFEFE" d="M240 81h-21"/><path stroke="#18344D" stroke-width="2" d="M240 81h-21"/></g><g mask="url(#s0fe90f__b)"><path fill="#FEFEFE" d="M233 81v41"/><path stroke="#18344D" stroke-width="2" d="M233 81v41"/></g><path fill="#FEFEFE" d="M215 106.83V122h22v-15.252L233.26 101h-14.52z" mask="url(#s0fe90f__b)"/><path stroke="#18344D" stroke-width="2" d="M215 106.83V122h22v-15.252L233.26 101h-14.52z" mask="url(#s0fe90f__b)"/><g mask="url(#s0fe90f__b)"><path fill="#FEFEFE" d="m233 101-4 6"/><path stroke="#18344D" stroke-width="2" d="m233 101-4 6"/></g><g mask="url(#s0fe90f__b)"><path fill="#FEFEFE" d="M236 106h-21"/><path stroke="#18344D" stroke-width="2" d="M236 106h-21"/></g><g mask="url(#s0fe90f__b)"><path fill="#FEFEFE" d="M229 106v15"/><path stroke="#18344D" stroke-width="2" d="M229 106v15"/></g><path fill="#FEFEFE" d="M0 130h586v-11H0z" mask="url(#s0fe90f__b)"/><path stroke="#18344D" stroke-width="2" d="M5 120h620" mask="url(#s0fe90f__b)"/></g></svg>