<svg width="285" height="240" viewBox="0 0 285 240" fill="none" xmlns="http://www.w3.org/2000/svg">
<g clip-path="url(#clip0_2175_131733)">
<path d="M213.241 211.148C242.989 211.148 260.164 197.337 260.164 176.266C260.164 161.746 250.957 150.945 235.375 145.81C248.123 140.498 255.737 130.405 255.737 116.948C255.737 97.116 239.447 83.6588 213.241 83.6588C186.858 83.6588 170.568 97.116 170.568 116.948C170.568 130.228 178.182 140.498 191.107 145.81C175.348 150.768 166.141 161.746 166.141 176.266C166.141 197.337 183.316 211.148 213.241 211.148ZM239.093 118.187C239.093 131.29 229.354 139.081 213.241 139.081C197.128 139.081 187.212 131.29 187.212 118.187C187.212 104.907 197.128 96.7619 213.241 96.7619C229.354 96.7619 239.093 104.907 239.093 118.187ZM213.241 198.222C194.826 198.222 183.671 189.723 183.671 175.734C183.671 161.392 194.826 152.893 213.241 152.893C231.479 152.893 242.634 161.392 242.634 175.734C242.634 189.723 231.479 198.222 213.241 198.222Z" fill="white"/>
<g filter="url(#filter0_dddddd_2175_131733)">
<path d="M251.574 82.4846C254.34 82.4846 256.578 83.3166 258.288 84.9808C259.999 86.645 260.854 88.7975 260.854 91.4384C260.854 93.175 260.454 94.7125 259.653 96.0511C258.889 97.3896 257.815 98.4568 256.432 99.2527C255.05 100.012 253.43 100.392 251.574 100.392C249.755 100.392 248.135 100.012 246.716 99.2527C245.297 98.4568 244.187 97.3896 243.386 96.0511C242.622 94.7125 242.24 93.175 242.24 91.4384C242.24 89.6658 242.622 88.1101 243.386 86.7716C244.187 85.433 245.297 84.3839 246.716 83.6241C248.135 82.8644 249.755 82.4846 251.574 82.4846ZM277.012 83.0272H283.453L249.991 121.013H243.55L277.012 83.0272ZM251.574 95.7797C252.957 95.7797 254.031 95.3818 254.795 94.5859C255.559 93.79 255.941 92.7408 255.941 91.4384C255.941 90.0999 255.559 89.0507 254.795 88.291C254.031 87.4951 252.957 87.0972 251.574 87.0972C250.228 87.0972 249.154 87.4951 248.354 88.291C247.589 89.0507 247.207 90.0999 247.207 91.4384C247.207 92.7408 247.589 93.79 248.354 94.5859C249.154 95.3818 250.228 95.7797 251.574 95.7797ZM275.429 103.703C277.285 103.703 278.904 104.082 280.287 104.842C281.67 105.602 282.744 106.669 283.508 108.044C284.308 109.382 284.709 110.92 284.709 112.656C284.709 115.297 283.854 117.45 282.143 119.114C280.433 120.742 278.195 121.556 275.429 121.556C272.663 121.556 270.425 120.742 268.715 119.114C267.004 117.45 266.149 115.297 266.149 112.656C266.149 110.92 266.531 109.382 267.295 108.044C268.096 106.669 269.188 105.602 270.571 104.842C271.99 104.082 273.609 103.703 275.429 103.703ZM275.429 116.998C276.812 116.998 277.885 116.6 278.65 115.804C279.45 115.008 279.851 113.959 279.851 112.656C279.851 111.318 279.45 110.251 278.65 109.455C277.885 108.659 276.812 108.261 275.429 108.261C274.082 108.261 273.009 108.659 272.208 109.455C271.444 110.251 271.062 111.318 271.062 112.656C271.062 113.959 271.444 115.008 272.208 115.804C273.009 116.6 274.082 116.998 275.429 116.998Z" fill="white"/>
</g>
<path d="M163.612 216.075L159.214 211.609L159.214 221.923H163.612L163.612 216.075Z" fill="url(#paint0_linear_2175_131733)"/>
<path fill-rule="evenodd" clip-rule="evenodd" d="M164.69 24.4857C166.891 26.1893 169.908 27.2399 173.236 27.2399C176.213 27.2399 178.94 26.3995 181.058 25.0032C182.44 26.2701 184.773 27.1024 187.419 27.1024C191.663 27.1024 195.103 24.9603 195.103 22.3179C195.103 19.6755 191.663 17.5334 187.419 17.5334C186.733 17.5334 186.069 17.5893 185.437 17.6941C185.437 17.6694 185.437 17.6447 185.437 17.6199C185.437 12.3069 179.974 7.99994 173.236 7.99994C167.492 7.99994 162.675 11.1299 161.378 15.3448C160.754 15.1463 160.086 15.0389 159.392 15.0389C155.893 15.0389 153.057 17.7702 153.057 21.1394C153.057 21.1562 153.057 21.1729 153.057 21.1897C152.753 21.1567 152.439 21.1394 152.119 21.1394C149.268 21.1394 146.957 22.5051 146.957 24.1897C146.957 25.8743 149.268 27.2399 152.119 27.2399C153.627 27.2399 154.985 26.8576 155.928 26.2481C156.924 26.8752 158.114 27.2399 159.392 27.2399C161.608 27.2399 163.558 26.1446 164.69 24.4857Z" fill="url(#paint1_linear_2175_131733)"/>
<path d="M151.785 165.611C151.785 179.572 146.756 190.53 136.698 198.486C126.64 206.292 113.13 210.195 96.167 210.195C79.3541 210.195 65.6937 206.517 55.1856 199.162C44.6776 191.656 38.2226 180.247 35.8208 164.936L56.987 160.882C58.338 170.94 62.3911 178.746 69.1463 184.3C75.9015 189.855 84.8333 192.632 95.9418 192.632C106.6 192.632 114.856 190.155 120.711 185.201C126.715 180.097 129.718 173.117 129.718 164.26C129.718 155.854 126.941 149.249 121.386 144.445C115.832 139.641 107.951 137.239 97.7432 137.239H80.1797V119.451H97.2928C106.45 119.451 113.655 117.049 118.909 112.245C124.163 107.291 126.79 100.686 126.79 92.4301C126.79 84.0237 124.013 77.4937 118.459 72.8401C113.055 68.1866 105.249 65.8598 95.0411 65.8598C85.4338 65.8598 77.5527 68.5618 71.398 73.966C65.2433 79.3701 61.4154 86.9509 59.9142 96.7084L39.4236 91.9798C41.8254 78.1692 48.0552 67.436 58.1129 59.7801C68.1706 51.9742 80.8553 48.0712 96.167 48.0712C112.079 48.0712 124.764 51.749 134.221 59.1046C143.678 66.3101 148.407 76.3678 148.407 89.2777C148.407 98.7349 146.08 106.691 141.427 113.146C136.773 119.601 130.243 124.33 121.837 127.332C131.444 130.034 138.8 134.612 143.903 141.067C149.158 147.372 151.785 155.553 151.785 165.611Z" fill="white"/>
<path fill-rule="evenodd" clip-rule="evenodd" d="M226.78 68.2729C232.843 68.2729 238.339 66.3589 242.35 63.2554C244.413 66.2776 247.965 68.2729 252.002 68.2729C254.331 68.2729 256.499 67.6085 258.313 66.4657C260.032 67.5764 262.505 68.2729 265.254 68.2729C270.448 68.2729 274.658 65.7849 274.658 62.7156C274.658 59.6464 270.448 57.1583 265.254 57.1583C264.67 57.1583 264.098 57.1898 263.543 57.25C263.544 57.2195 263.544 57.1889 263.544 57.1583C263.544 51.0199 258.376 46.0437 252.002 46.0437C250.738 46.0437 249.522 46.2393 248.384 46.6007C246.022 38.9216 237.245 33.2191 226.78 33.2191C215.817 33.2191 206.708 39.4762 204.883 47.708C203.422 47.1886 201.792 46.8986 200.074 46.8986C193.77 46.8986 188.659 50.8014 188.659 55.6157C188.659 60.4299 193.77 64.3327 200.074 64.3327C202.035 64.3327 203.881 63.9549 205.493 63.2895C207.379 66.9573 211.305 69.4792 215.843 69.4792C218.053 69.4792 220.117 68.8813 221.872 67.8443C223.451 68.1248 225.093 68.2729 226.78 68.2729Z" fill="url(#paint2_linear_2175_131733)"/>
<g filter="url(#filter1_ddddd_2175_131733)">
<path d="M148.913 196.181H164.455V212.404C164.455 219.332 163.149 224.233 160.538 227.106C157.926 229.979 153.63 231.499 147.649 231.668L146.891 223.177C150.176 223.177 152.409 222.501 153.588 221.149C154.852 219.797 155.483 217.136 155.483 213.164V211.897H148.913V196.181Z" fill="white"/>
</g>
<path d="M1 133.744V124.065H44.0145V133.744H1Z" fill="white"/>
</g>
<defs>
<filter id="filter0_dddddd_2175_131733" x="207.24" y="77.4846" width="78.469" height="55.0715" filterUnits="userSpaceOnUse" color-interpolation-filters="sRGB">
<feFlood flood-opacity="0" result="BackgroundImageFix"/>
<feColorMatrix in="SourceAlpha" type="matrix" values="0 0 0 0 0 0 0 0 0 0 0 0 0 0 0 0 0 0 127 0" result="hardAlpha"/>
<feOffset/>
<feColorMatrix type="matrix" values="0 0 0 0 0.0156863 0 0 0 0 0.407843 0 0 0 0 0.996078 0 0 0 0.3 0"/>
<feBlend mode="normal" in2="BackgroundImageFix" result="effect1_dropShadow_2175_131733"/>
<feColorMatrix in="SourceAlpha" type="matrix" values="0 0 0 0 0 0 0 0 0 0 0 0 0 0 0 0 0 0 127 0" result="hardAlpha"/>
<feOffset dx="-1"/>
<feGaussianBlur stdDeviation="1"/>
<feColorMatrix type="matrix" values="0 0 0 0 0.0156863 0 0 0 0 0.407843 0 0 0 0 0.996078 0 0 0 0.29 0"/>
<feBlend mode="normal" in2="effect1_dropShadow_2175_131733" result="effect2_dropShadow_2175_131733"/>
<feColorMatrix in="SourceAlpha" type="matrix" values="0 0 0 0 0 0 0 0 0 0 0 0 0 0 0 0 0 0 127 0" result="hardAlpha"/>
<feOffset dx="-4" dy="1"/>
<feGaussianBlur stdDeviation="2"/>
<feColorMatrix type="matrix" values="0 0 0 0 0.0156863 0 0 0 0 0.407843 0 0 0 0 0.996078 0 0 0 0.26 0"/>
<feBlend mode="normal" in2="effect2_dropShadow_2175_131733" result="effect3_dropShadow_2175_131733"/>
<feColorMatrix in="SourceAlpha" type="matrix" values="0 0 0 0 0 0 0 0 0 0 0 0 0 0 0 0 0 0 127 0" result="hardAlpha"/>
<feOffset dx="-10" dy="1"/>
<feGaussianBlur stdDeviation="3"/>
<feColorMatrix type="matrix" values="0 0 0 0 0.0156863 0 0 0 0 0.407843 0 0 0 0 0.996078 0 0 0 0.15 0"/>
<feBlend mode="normal" in2="effect3_dropShadow_2175_131733" result="effect4_dropShadow_2175_131733"/>
<feColorMatrix in="SourceAlpha" type="matrix" values="0 0 0 0 0 0 0 0 0 0 0 0 0 0 0 0 0 0 127 0" result="hardAlpha"/>
<feOffset dx="-17" dy="2"/>
<feGaussianBlur stdDeviation="3.5"/>
<feColorMatrix type="matrix" values="0 0 0 0 0.0156863 0 0 0 0 0.407843 0 0 0 0 0.996078 0 0 0 0.04 0"/>
<feBlend mode="normal" in2="effect4_dropShadow_2175_131733" result="effect5_dropShadow_2175_131733"/>
<feColorMatrix in="SourceAlpha" type="matrix" values="0 0 0 0 0 0 0 0 0 0 0 0 0 0 0 0 0 0 127 0" result="hardAlpha"/>
<feOffset dx="-27" dy="3"/>
<feGaussianBlur stdDeviation="4"/>
<feColorMatrix type="matrix" values="0 0 0 0 0.0156863 0 0 0 0 0.407843 0 0 0 0 0.996078 0 0 0 0.01 0"/>
<feBlend mode="normal" in2="effect5_dropShadow_2175_131733" result="effect6_dropShadow_2175_131733"/>
<feBlend mode="normal" in="SourceGraphic" in2="effect6_dropShadow_2175_131733" result="shape"/>
</filter>
<filter id="filter1_ddddd_2175_131733" x="132.891" y="191.181" width="31.5642" height="43.4869" filterUnits="userSpaceOnUse" color-interpolation-filters="sRGB">
<feFlood flood-opacity="0" result="BackgroundImageFix"/>
<feColorMatrix in="SourceAlpha" type="matrix" values="0 0 0 0 0 0 0 0 0 0 0 0 0 0 0 0 0 0 127 0" result="hardAlpha"/>
<feOffset/>
<feColorMatrix type="matrix" values="0 0 0 0 0.0156863 0 0 0 0 0.407843 0 0 0 0 0.996078 0 0 0 0.23 0"/>
<feBlend mode="normal" in2="BackgroundImageFix" result="effect1_dropShadow_2175_131733"/>
<feColorMatrix in="SourceAlpha" type="matrix" values="0 0 0 0 0 0 0 0 0 0 0 0 0 0 0 0 0 0 127 0" result="hardAlpha"/>
<feOffset dx="-1"/>
<feGaussianBlur stdDeviation="0.5"/>
<feColorMatrix type="matrix" values="0 0 0 0 0.0156863 0 0 0 0 0.407843 0 0 0 0 0.996078 0 0 0 0.23 0"/>
<feBlend mode="normal" in2="effect1_dropShadow_2175_131733" result="effect2_dropShadow_2175_131733"/>
<feColorMatrix in="SourceAlpha" type="matrix" values="0 0 0 0 0 0 0 0 0 0 0 0 0 0 0 0 0 0 127 0" result="hardAlpha"/>
<feOffset dx="-3"/>
<feGaussianBlur stdDeviation="1.5"/>
<feColorMatrix type="matrix" values="0 0 0 0 0.0156863 0 0 0 0 0.407843 0 0 0 0 0.996078 0 0 0 0.2 0"/>
<feBlend mode="normal" in2="effect2_dropShadow_2175_131733" result="effect3_dropShadow_2175_131733"/>
<feColorMatrix in="SourceAlpha" type="matrix" values="0 0 0 0 0 0 0 0 0 0 0 0 0 0 0 0 0 0 127 0" result="hardAlpha"/>
<feOffset dx="-6"/>
<feGaussianBlur stdDeviation="1.5"/>
<feColorMatrix type="matrix" values="0 0 0 0 0.0156863 0 0 0 0 0.407843 0 0 0 0 0.996078 0 0 0 0.12 0"/>
<feBlend mode="normal" in2="effect3_dropShadow_2175_131733" result="effect4_dropShadow_2175_131733"/>
<feColorMatrix in="SourceAlpha" type="matrix" values="0 0 0 0 0 0 0 0 0 0 0 0 0 0 0 0 0 0 127 0" result="hardAlpha"/>
<feOffset dx="-10" dy="-1"/>
<feGaussianBlur stdDeviation="2"/>
<feColorMatrix type="matrix" values="0 0 0 0 0.0156863 0 0 0 0 0.407843 0 0 0 0 0.996078 0 0 0 0.03 0"/>
<feBlend mode="normal" in2="effect4_dropShadow_2175_131733" result="effect5_dropShadow_2175_131733"/>
<feBlend mode="normal" in="SourceGraphic" in2="effect5_dropShadow_2175_131733" result="shape"/>
</filter>
<linearGradient id="paint0_linear_2175_131733" x1="158.695" y1="211.46" x2="157.967" y2="231.288" gradientUnits="userSpaceOnUse">
<stop stop-color="#013C8D"/>
<stop offset="1" stop-color="#016DFD"/>
</linearGradient>
<linearGradient id="paint1_linear_2175_131733" x1="176.463" y1="11.3314" x2="172.753" y2="28.687" gradientUnits="userSpaceOnUse">
<stop stop-color="#659BFF"/>
<stop offset="1" stop-color="#FDE1FF"/>
</linearGradient>
<linearGradient id="paint2_linear_2175_131733" x1="238.105" y1="43.2908" x2="228.58" y2="72.2065" gradientUnits="userSpaceOnUse">
<stop stop-color="#659BFF"/>
<stop offset="1" stop-color="#FDE1FF"/>
</linearGradient>
<clipPath id="clip0_2175_131733">
<rect width="285" height="240" fill="white"/>
</clipPath>
</defs>
</svg>