<svg width="1440" height="532" viewBox="0 0 1440 532" fill="none" xmlns="http://www.w3.org/2000/svg">
<g clip-path="url(#clip0_1844_112583)">
<path d="M681.094 250.06L742.077 250.06V222.8H808.923L817.111 234.141H852.268V285H681.094V250.06Z" fill="url(#paint0_linear_1844_112583)"/>
<path d="M505 226.051L461.334 223.52V285H505V226.051Z" fill="url(#paint1_linear_1844_112583)"/>
<path d="M461.75 285V223.52L432.875 228.217V285H461.75Z" fill="url(#paint2_linear_1844_112583)"/>
<path d="M330.391 130.538V120.675L385.518 116.272V144.276L317.358 148.151V130.538H330.391Z" fill="url(#paint3_linear_1844_112583)"/>
<path fill-rule="evenodd" clip-rule="evenodd" d="M412.801 119.059L385.293 116.168V125.381L372.248 124.01V143.4L353.814 141.462L353.815 285L444.278 285V150.971L425.846 149.033V129.643L412.801 128.272V119.059Z" fill="url(#paint4_linear_1844_112583)"/>
<path d="M425.263 165.055C419.553 164.546 413.84 164.024 408.125 163.489C408.13 171.832 408.132 180.17 408.132 188.503C413.843 188.908 419.553 189.299 425.263 189.675C425.268 181.471 425.268 173.264 425.263 165.055Z" fill="#024BB0"/>
<path d="M389.977 161.715C384.257 161.151 378.544 160.589 372.839 160.03C372.839 168.63 372.836 177.233 372.832 185.838C378.547 186.263 384.262 186.696 389.977 187.137C389.977 178.656 389.977 170.182 389.977 161.715Z" fill="#024BB0"/>
<path d="M389.977 202.679C384.262 202.318 378.549 201.962 372.839 201.61C372.834 210.22 372.834 218.83 372.839 227.44C378.544 227.673 384.257 227.901 389.977 228.123C389.977 219.642 389.977 211.161 389.977 202.679Z" fill="#024BB0"/>
<path d="M372.832 241.803C378.542 241.971 384.255 242.129 389.97 242.278C389.975 250.754 389.975 259.228 389.97 267.699C384.26 267.684 378.549 267.66 372.839 267.625C372.834 259.02 372.832 250.413 372.832 241.803Z" fill="#024BB0"/>
<path d="M408.132 203.763C413.843 204.085 419.555 204.401 425.271 204.713C425.266 212.922 425.263 221.126 425.263 229.326C419.553 229.138 413.84 228.95 408.125 228.762C408.13 220.429 408.132 212.096 408.132 203.763Z" fill="#024BB0"/>
<path d="M425.263 243.012C419.548 242.889 413.838 242.77 408.132 242.656C408.127 250.994 408.127 259.337 408.132 267.684C413.838 267.67 419.55 267.66 425.271 267.655C425.266 259.436 425.263 251.222 425.263 243.012Z" fill="#024BB0"/>
<path d="M425.263 165.055C419.553 164.545 413.84 164.023 408.125 163.489C408.13 171.832 408.132 180.17 408.132 188.502C413.842 188.908 419.553 189.299 425.263 189.675C425.268 181.471 425.268 173.264 425.263 165.055Z" fill="#FFE1FF"/>
<path d="M389.977 202.679C384.262 202.318 378.549 201.962 372.839 201.61C372.834 210.22 372.834 218.83 372.839 227.44C378.544 227.673 384.257 227.9 389.977 228.123C389.977 219.642 389.977 211.16 389.977 202.679Z" fill="#FFE1FF"/>
<path d="M300.064 144.377L353.692 141.549V285H300.064V144.377Z" fill="url(#paint5_linear_1844_112583)"/>
<path d="M344.94 189.298L304.382 186.556L305 285H344.94V189.298Z" fill="url(#paint6_linear_1844_112583)"/>
<path d="M304.981 285V186.556L281.014 188.956V202.538L263.405 203.576V285.215L304.981 285Z" fill="url(#paint7_linear_1844_112583)"/>
<path d="M993.896 151.721L1021.73 135.347L1049.57 147.34L1049.77 285L993.896 285V151.721Z" fill="url(#paint8_linear_1844_112583)"/>
<path d="M1073.24 155.799L1049.57 147.63L1050 285L1073.6 284.324L1073.24 155.799Z" fill="url(#paint9_linear_1844_112583)"/>
<path d="M1045.95 142.764L1022.01 135.386L1049.44 147.77L1073.24 155.776L1045.95 142.764Z" fill="url(#paint10_linear_1844_112583)"/>
<path d="M1009.68 165.779C1017.72 165.19 1025.76 164.598 1033.8 164.004C1033.8 172.536 1033.79 181.068 1033.79 189.6C1025.75 190.029 1017.71 190.451 1009.67 190.866C1009.68 182.508 1009.68 174.146 1009.68 165.779Z" fill="#024BB0"/>
<path d="M1009.68 206.074C1017.71 205.756 1025.75 205.435 1033.79 205.112C1033.79 213.639 1033.79 222.169 1033.79 230.701C1025.75 230.863 1017.71 231.019 1009.68 231.168C1009.68 222.801 1009.68 214.436 1009.68 206.074Z" fill="#024BB0"/>
<path d="M1033.79 246.206C1025.76 246.267 1017.72 246.32 1009.67 246.363C1009.68 254.729 1009.68 272.041 1009.68 272.041L1033.79 271.816C1033.79 271.816 1033.79 254.743 1033.79 246.206Z" fill="#024BB0"/>
<path d="M1033.79 246.206C1025.76 246.267 1017.72 246.32 1009.67 246.363C1009.68 254.729 1009.68 272.041 1009.68 272.041L1033.79 271.816C1033.79 271.816 1033.79 254.743 1033.79 246.206Z" fill="#FFE1FF"/>
<path d="M1057.76 194.832L1109.74 190.44V285.406L1057.76 285.406V194.832Z" fill="url(#paint11_linear_1844_112583)"/>
<path d="M1082.13 205.776C1076.37 206.198 1070.61 206.607 1064.85 207.001C1064.85 213.021 1064.85 219.039 1064.86 225.055C1070.62 224.77 1076.37 224.479 1082.13 224.181C1082.13 218.046 1082.13 211.911 1082.13 205.776Z" fill="#024BB0"/>
<path d="M1082.13 248.248C1076.37 248.376 1070.61 248.509 1064.85 248.646C1064.86 254.657 1064.86 260.675 1064.86 266.7C1070.62 266.682 1076.37 266.664 1082.13 266.646C1082.13 260.511 1082.13 254.379 1082.13 248.248Z" fill="#024BB0"/>
<path d="M1085.38 205.532C1091.14 205.105 1096.9 204.679 1102.65 204.252C1102.65 210.525 1102.65 216.8 1102.65 223.077C1096.9 223.384 1091.14 223.694 1085.38 224.006C1085.38 217.848 1085.38 211.69 1085.38 205.532Z" fill="#024BB0"/>
<path d="M1102.65 247.709C1096.89 247.869 1091.14 248.023 1085.38 248.169C1085.38 254.327 1085.38 260.485 1085.38 266.643C1091.14 266.616 1096.9 266.582 1102.65 266.541C1102.65 260.264 1102.65 253.986 1102.65 247.709Z" fill="#024BB0"/>
<path d="M1085.38 205.532C1091.14 205.105 1096.9 204.678 1102.65 204.252C1102.65 210.525 1102.65 216.8 1102.65 223.077C1096.9 223.384 1091.14 223.694 1085.38 224.005C1085.38 217.848 1085.38 211.69 1085.38 205.532Z" fill="#FFE1FF"/>
<path d="M1137.88 198.261L1109.73 190.44V285L1137.88 285V198.261Z" fill="url(#paint12_linear_1844_112583)"/>
<path d="M905.737 285V231.28L897.565 230.104L897.565 220.649L884.907 218.708V285H905.737Z" fill="url(#paint13_linear_1844_112583)"/>
<path d="M885.5 285L885.259 218.708L869.554 220.323V229.46L858.015 230.159V285H885.5Z" fill="url(#paint14_linear_1844_112583)"/>
<rect x="-71" y="285" width="1583" height="247" fill="url(#paint15_radial_1844_112583)"/>
<path d="M1114.91 242.284L1150.02 240.501V285.176H1114.91V242.284Z" fill="url(#paint16_linear_1844_112583)"/>
<path d="M1149.63 285.41V240.501L1176.74 244.453V285.41H1149.63Z" fill="url(#paint17_linear_1844_112583)"/>
<path d="M905.84 251.342H985.89V285H905.84V251.342Z" fill="url(#paint18_linear_1844_112583)"/>
<path fill-rule="evenodd" clip-rule="evenodd" d="M867.102 59.4805C877.391 59.4805 886.717 56.2328 893.522 50.9667C897.023 56.0948 903.051 59.4804 909.9 59.4804C913.852 59.4804 917.531 58.353 920.609 56.4139C923.526 58.2985 927.723 59.4805 932.386 59.4805C941.199 59.4805 948.344 55.2586 948.344 50.0507C948.344 44.8427 941.199 40.6208 932.386 40.6208C931.395 40.6208 930.425 40.6742 929.484 40.7763C929.485 40.7245 929.485 40.6727 929.485 40.6207C929.485 30.2048 920.716 21.7611 909.9 21.7611C907.755 21.7611 905.692 22.0929 903.761 22.7062C899.753 9.67604 884.861 0 867.102 0C848.5 0 833.043 10.6173 829.948 24.5855C827.467 23.7041 824.702 23.2121 821.786 23.2121C811.089 23.2121 802.418 29.8344 802.418 38.0034C802.418 46.1725 811.089 52.7948 821.786 52.7948C825.114 52.7948 828.246 52.1538 830.982 51.0246C834.182 57.2482 840.844 61.5275 848.544 61.5275C852.294 61.5275 855.797 60.5129 858.775 58.7532C861.454 59.2293 864.241 59.4805 867.102 59.4805Z" fill="url(#paint19_linear_1844_112583)"/>
<path fill-rule="evenodd" clip-rule="evenodd" d="M522.389 72.1033C526.161 75.0227 531.331 76.8231 537.034 76.8231C542.135 76.8231 546.809 75.383 550.438 72.9905C552.807 75.1615 556.805 76.5877 561.338 76.5877C568.61 76.5877 574.506 72.917 574.506 68.3888C574.506 63.8607 568.61 60.1899 561.338 60.1899C560.164 60.1899 559.025 60.2857 557.942 60.4652C557.942 60.4229 557.942 60.3804 557.942 60.338C557.942 51.2335 548.582 43.8529 537.034 43.8529C527.191 43.8529 518.936 49.2166 516.715 56.4395C515.644 56.0993 514.5 55.9153 513.311 55.9153C507.315 55.9153 502.455 60.5957 502.455 66.3692C502.455 66.3979 502.455 66.4266 502.455 66.4552C501.934 66.3987 501.396 66.3691 500.847 66.3691C495.962 66.3691 492.002 68.7093 492.002 71.5961C492.002 74.4829 495.962 76.8231 500.847 76.8231C503.432 76.8231 505.758 76.1681 507.375 75.1236C509.081 76.1983 511.12 76.8232 513.311 76.8232C517.107 76.8232 520.449 74.9462 522.389 72.1033Z" fill="url(#paint20_linear_1844_112583)"/>
<path d="M781.409 285C817.109 285 837.722 268.425 837.722 243.138C837.722 225.713 826.672 212.75 807.972 206.588C823.272 200.212 832.409 188.1 832.409 171.95C832.409 148.15 812.859 132 781.409 132C749.747 132 730.197 148.15 730.197 171.95C730.197 187.888 739.334 200.212 754.847 206.588C735.934 212.537 724.884 225.713 724.884 243.138C724.884 268.425 745.497 285 781.409 285ZM812.434 173.437C812.434 189.163 800.747 198.513 781.409 198.513C762.072 198.513 750.172 189.163 750.172 173.437C750.172 157.5 762.072 147.725 781.409 147.725C800.747 147.725 812.434 157.5 812.434 173.437ZM781.409 269.488C759.309 269.488 745.922 259.288 745.922 242.5C745.922 225.287 759.309 215.088 781.409 215.088C803.297 215.088 816.684 225.287 816.684 242.5C816.684 259.288 803.297 269.488 781.409 269.488Z" fill="white"/>
<g filter="url(#filter0_dddddd_1844_112583)">
<path d="M827.257 130.237C830.571 130.237 833.253 131.234 835.303 133.228C837.352 135.222 838.377 137.801 838.377 140.966C838.377 143.047 837.897 144.889 836.938 146.493C836.022 148.097 834.736 149.376 833.079 150.33C831.422 151.24 829.481 151.695 827.257 151.695C825.077 151.695 823.136 151.24 821.435 150.33C819.735 149.376 818.405 148.097 817.445 146.493C816.53 144.889 816.072 143.047 816.072 140.966C816.072 138.842 816.53 136.978 817.445 135.374C818.405 133.77 819.735 132.513 821.435 131.602C823.136 130.692 825.077 130.237 827.257 130.237ZM857.738 130.887H865.457L825.36 176.405H817.642L857.738 130.887ZM827.257 146.168C828.914 146.168 830.201 145.691 831.116 144.737C832.032 143.784 832.49 142.527 832.49 140.966C832.49 139.362 832.032 138.105 831.116 137.194C830.201 136.241 828.914 135.764 827.257 135.764C825.644 135.764 824.357 136.241 823.398 137.194C822.482 138.105 822.024 139.362 822.024 140.966C822.024 142.527 822.482 143.784 823.398 144.737C824.357 145.691 825.644 146.168 827.257 146.168ZM855.842 155.662C858.066 155.662 860.006 156.117 861.663 157.027C863.32 157.938 864.607 159.216 865.522 160.864C866.482 162.468 866.961 164.31 866.961 166.391C866.961 169.556 865.937 172.135 863.887 174.129C861.838 176.08 859.156 177.055 855.842 177.055C852.527 177.055 849.846 176.08 847.796 174.129C845.746 172.135 844.722 169.556 844.722 166.391C844.722 164.31 845.18 162.468 846.095 160.864C847.055 159.216 848.363 157.938 850.02 157.027C851.721 156.117 853.661 155.662 855.842 155.662ZM855.842 171.593C857.499 171.593 858.785 171.116 859.701 170.162C860.66 169.209 861.14 167.952 861.14 166.391C861.14 164.787 860.66 163.508 859.701 162.554C858.785 161.601 857.499 161.124 855.842 161.124C854.228 161.124 852.942 161.601 851.982 162.554C851.067 163.508 850.609 164.787 850.609 166.391C850.609 167.952 851.067 169.209 851.982 170.162C852.942 171.116 854.228 171.593 855.842 171.593Z" fill="white"/>
</g>
<path d="M707.489 231.65C707.489 207.4 694.555 192.311 671.652 185.844C691.861 178.569 703.447 162.672 703.447 140.308C703.447 109.322 678.927 91 640.936 91C604.291 91 578.694 110.4 573.036 143.542L597.555 149.2C601.058 125.758 616.686 112.286 639.589 112.286C663.839 112.286 677.58 123.872 677.58 144.081C677.58 164.019 664.108 176.414 642.283 176.414H621.805V197.7H642.822C667.072 197.7 681.083 209.825 681.083 230.033C681.083 251.319 665.994 263.983 640.666 263.983C613.991 263.983 597.286 250.242 594.052 225.992L568.725 230.842C574.383 267.486 600.788 285 640.936 285C681.352 285 707.489 265.061 707.489 231.65Z" fill="white"/>
<g filter="url(#filter1_ddddd_1844_112583)">
<path d="M704.24 266.477H722.864V285.916C722.864 294.218 721.3 300.09 718.17 303.533C715.041 306.975 709.893 308.798 702.726 309L701.817 298.825C705.754 298.825 708.429 298.015 709.842 296.395C711.357 294.775 712.114 291.586 712.114 286.827V285.309H704.24V266.477Z" fill="white"/>
</g>
<path d="M527 191.659V180.062H578.543V191.659H527Z" fill="white"/>
</g>
<defs>
<filter id="filter0_dddddd_1844_112583" x="775.072" y="124.237" width="93.8896" height="65.8184" filterUnits="userSpaceOnUse" color-interpolation-filters="sRGB">
<feFlood flood-opacity="0" result="BackgroundImageFix"/>
<feColorMatrix in="SourceAlpha" type="matrix" values="0 0 0 0 0 0 0 0 0 0 0 0 0 0 0 0 0 0 127 0" result="hardAlpha"/>
<feOffset/>
<feColorMatrix type="matrix" values="0 0 0 0 0.0156863 0 0 0 0 0.407843 0 0 0 0 0.996078 0 0 0 0.3 0"/>
<feBlend mode="normal" in2="BackgroundImageFix" result="effect1_dropShadow_1844_112583"/>
<feColorMatrix in="SourceAlpha" type="matrix" values="0 0 0 0 0 0 0 0 0 0 0 0 0 0 0 0 0 0 127 0" result="hardAlpha"/>
<feOffset dx="-1"/>
<feGaussianBlur stdDeviation="1.5"/>
<feColorMatrix type="matrix" values="0 0 0 0 0.0156863 0 0 0 0 0.407843 0 0 0 0 0.996078 0 0 0 0.29 0"/>
<feBlend mode="normal" in2="effect1_dropShadow_1844_112583" result="effect2_dropShadow_1844_112583"/>
<feColorMatrix in="SourceAlpha" type="matrix" values="0 0 0 0 0 0 0 0 0 0 0 0 0 0 0 0 0 0 127 0" result="hardAlpha"/>
<feOffset dx="-5" dy="1"/>
<feGaussianBlur stdDeviation="2.5"/>
<feColorMatrix type="matrix" values="0 0 0 0 0.0156863 0 0 0 0 0.407843 0 0 0 0 0.996078 0 0 0 0.26 0"/>
<feBlend mode="normal" in2="effect2_dropShadow_1844_112583" result="effect3_dropShadow_1844_112583"/>
<feColorMatrix in="SourceAlpha" type="matrix" values="0 0 0 0 0 0 0 0 0 0 0 0 0 0 0 0 0 0 127 0" result="hardAlpha"/>
<feOffset dx="-12" dy="1"/>
<feGaussianBlur stdDeviation="3.5"/>
<feColorMatrix type="matrix" values="0 0 0 0 0.0156863 0 0 0 0 0.407843 0 0 0 0 0.996078 0 0 0 0.15 0"/>
<feBlend mode="normal" in2="effect3_dropShadow_1844_112583" result="effect4_dropShadow_1844_112583"/>
<feColorMatrix in="SourceAlpha" type="matrix" values="0 0 0 0 0 0 0 0 0 0 0 0 0 0 0 0 0 0 127 0" result="hardAlpha"/>
<feOffset dx="-20" dy="3"/>
<feGaussianBlur stdDeviation="4"/>
<feColorMatrix type="matrix" values="0 0 0 0 0.0156863 0 0 0 0 0.407843 0 0 0 0 0.996078 0 0 0 0.04 0"/>
<feBlend mode="normal" in2="effect4_dropShadow_1844_112583" result="effect5_dropShadow_1844_112583"/>
<feColorMatrix in="SourceAlpha" type="matrix" values="0 0 0 0 0 0 0 0 0 0 0 0 0 0 0 0 0 0 127 0" result="hardAlpha"/>
<feOffset dx="-32" dy="4"/>
<feGaussianBlur stdDeviation="4.5"/>
<feColorMatrix type="matrix" values="0 0 0 0 0.0156863 0 0 0 0 0.407843 0 0 0 0 0.996078 0 0 0 0.01 0"/>
<feBlend mode="normal" in2="effect5_dropShadow_1844_112583" result="effect6_dropShadow_1844_112583"/>
<feBlend mode="normal" in="SourceGraphic" in2="effect6_dropShadow_1844_112583" result="shape"/>
</filter>
<filter id="filter1_ddddd_1844_112583" x="684.817" y="260.477" width="39.0469" height="52.5232" filterUnits="userSpaceOnUse" color-interpolation-filters="sRGB">
<feFlood flood-opacity="0" result="BackgroundImageFix"/>
<feColorMatrix in="SourceAlpha" type="matrix" values="0 0 0 0 0 0 0 0 0 0 0 0 0 0 0 0 0 0 127 0" result="hardAlpha"/>
<feOffset/>
<feColorMatrix type="matrix" values="0 0 0 0 0.0156863 0 0 0 0 0.407843 0 0 0 0 0.996078 0 0 0 0.23 0"/>
<feBlend mode="normal" in2="BackgroundImageFix" result="effect1_dropShadow_1844_112583"/>
<feColorMatrix in="SourceAlpha" type="matrix" values="0 0 0 0 0 0 0 0 0 0 0 0 0 0 0 0 0 0 127 0" result="hardAlpha"/>
<feOffset dx="-1"/>
<feGaussianBlur stdDeviation="1"/>
<feColorMatrix type="matrix" values="0 0 0 0 0.0156863 0 0 0 0 0.407843 0 0 0 0 0.996078 0 0 0 0.23 0"/>
<feBlend mode="normal" in2="effect1_dropShadow_1844_112583" result="effect2_dropShadow_1844_112583"/>
<feColorMatrix in="SourceAlpha" type="matrix" values="0 0 0 0 0 0 0 0 0 0 0 0 0 0 0 0 0 0 127 0" result="hardAlpha"/>
<feOffset dx="-3"/>
<feGaussianBlur stdDeviation="1.5"/>
<feColorMatrix type="matrix" values="0 0 0 0 0.0156863 0 0 0 0 0.407843 0 0 0 0 0.996078 0 0 0 0.2 0"/>
<feBlend mode="normal" in2="effect2_dropShadow_1844_112583" result="effect3_dropShadow_1844_112583"/>
<feColorMatrix in="SourceAlpha" type="matrix" values="0 0 0 0 0 0 0 0 0 0 0 0 0 0 0 0 0 0 127 0" result="hardAlpha"/>
<feOffset dx="-7" dy="-1"/>
<feGaussianBlur stdDeviation="2"/>
<feColorMatrix type="matrix" values="0 0 0 0 0.0156863 0 0 0 0 0.407843 0 0 0 0 0.996078 0 0 0 0.12 0"/>
<feBlend mode="normal" in2="effect3_dropShadow_1844_112583" result="effect4_dropShadow_1844_112583"/>
<feColorMatrix in="SourceAlpha" type="matrix" values="0 0 0 0 0 0 0 0 0 0 0 0 0 0 0 0 0 0 127 0" result="hardAlpha"/>
<feOffset dx="-12" dy="-1"/>
<feGaussianBlur stdDeviation="2.5"/>
<feColorMatrix type="matrix" values="0 0 0 0 0.0156863 0 0 0 0 0.407843 0 0 0 0 0.996078 0 0 0 0.03 0"/>
<feBlend mode="normal" in2="effect4_dropShadow_1844_112583" result="effect5_dropShadow_1844_112583"/>
<feBlend mode="normal" in="SourceGraphic" in2="effect5_dropShadow_1844_112583" result="shape"/>
</filter>
<linearGradient id="paint0_linear_1844_112583" x1="938.14" y1="207.478" x2="930.503" y2="274.936" gradientUnits="userSpaceOnUse">
<stop stop-color="#FDE1FF"/>
<stop offset="1" stop-color="#659BFF"/>
</linearGradient>
<linearGradient id="paint1_linear_1844_112583" x1="509.364" y1="232.616" x2="485.397" y2="277.998" gradientUnits="userSpaceOnUse">
<stop stop-color="#FDE1FF"/>
<stop offset="1" stop-color="#659BFF"/>
</linearGradient>
<linearGradient id="paint2_linear_1844_112583" x1="465.152" y1="208.625" x2="467.544" y2="300.688" gradientUnits="userSpaceOnUse">
<stop stop-color="#013C8D"/>
<stop offset="1" stop-color="#016DFD"/>
</linearGradient>
<linearGradient id="paint3_linear_1844_112583" x1="371.663" y1="108.825" x2="371.937" y2="154.885" gradientUnits="userSpaceOnUse">
<stop stop-color="#013C8D"/>
<stop offset="1" stop-color="#016DFD"/>
</linearGradient>
<linearGradient id="paint4_linear_1844_112583" x1="426.611" y1="126.531" x2="380.133" y2="250.355" gradientUnits="userSpaceOnUse">
<stop stop-color="#FDE1FF"/>
<stop offset="1" stop-color="#659BFF"/>
</linearGradient>
<linearGradient id="paint5_linear_1844_112583" x1="344.879" y1="107.567" x2="353.835" y2="317.368" gradientUnits="userSpaceOnUse">
<stop stop-color="#013C8D"/>
<stop offset="1" stop-color="#016DFD"/>
</linearGradient>
<linearGradient id="paint6_linear_1844_112583" x1="348.994" y1="200.971" x2="303.25" y2="251.735" gradientUnits="userSpaceOnUse">
<stop stop-color="#FDE1FF"/>
<stop offset="1" stop-color="#659BFF"/>
</linearGradient>
<linearGradient id="paint7_linear_1844_112583" x1="309.88" y1="163.042" x2="314.019" y2="308.357" gradientUnits="userSpaceOnUse">
<stop stop-color="#013C8D"/>
<stop offset="1" stop-color="#016DFD"/>
</linearGradient>
<linearGradient id="paint8_linear_1844_112583" x1="1038.86" y1="139.319" x2="1003.74" y2="253.346" gradientUnits="userSpaceOnUse">
<stop stop-color="#FDE1FF"/>
<stop offset="1" stop-color="#659BFF"/>
</linearGradient>
<linearGradient id="paint9_linear_1844_112583" x1="1058.85" y1="124.17" x2="1056.18" y2="268.685" gradientUnits="userSpaceOnUse">
<stop stop-color="#013C8D"/>
<stop offset="1" stop-color="#016DFD"/>
</linearGradient>
<linearGradient id="paint10_linear_1844_112583" x1="1062.7" y1="129.274" x2="1063.16" y2="164.715" gradientUnits="userSpaceOnUse">
<stop stop-color="#013C8D"/>
<stop offset="1" stop-color="#016DFD"/>
</linearGradient>
<linearGradient id="paint11_linear_1844_112583" x1="1138.21" y1="147.935" x2="1155.09" y2="220.441" gradientUnits="userSpaceOnUse">
<stop stop-color="#FDE1FF"/>
<stop offset="1" stop-color="#659BFF"/>
</linearGradient>
<linearGradient id="paint12_linear_1844_112583" x1="1118.25" y1="166.991" x2="1115.15" y2="311.489" gradientUnits="userSpaceOnUse">
<stop stop-color="#013C8D"/>
<stop offset="1" stop-color="#016DFD"/>
</linearGradient>
<linearGradient id="paint13_linear_1844_112583" x1="884.907" y1="194.709" x2="925.698" y2="276.06" gradientUnits="userSpaceOnUse">
<stop stop-color="#013C8D"/>
<stop offset="1" stop-color="#016DFD"/>
</linearGradient>
<linearGradient id="paint14_linear_1844_112583" x1="850.279" y1="206.591" x2="847.714" y2="281.598" gradientUnits="userSpaceOnUse">
<stop stop-color="#FDE1FF"/>
<stop offset="1" stop-color="#659BFF"/>
</linearGradient>
<radialGradient id="paint15_radial_1844_112583" cx="0" cy="0" r="1" gradientUnits="userSpaceOnUse" gradientTransform="translate(761.222 226.874) rotate(90) scale(305.126 613.493)">
<stop stop-color="#FFE1FF"/>
<stop offset="1" stop-color="#006CFD" stop-opacity="0"/>
</radialGradient>
<linearGradient id="paint16_linear_1844_112583" x1="1111.41" y1="246.908" x2="1126.98" y2="280.582" gradientUnits="userSpaceOnUse">
<stop stop-color="#FDE1FF"/>
<stop offset="1" stop-color="#659BFF"/>
</linearGradient>
<linearGradient id="paint17_linear_1844_112583" x1="1146.44" y1="230.01" x2="1145.17" y2="294.876" gradientUnits="userSpaceOnUse">
<stop stop-color="#013C8D"/>
<stop offset="1" stop-color="#016DFD"/>
</linearGradient>
<linearGradient id="paint18_linear_1844_112583" x1="1029.75" y1="243.588" x2="1028.22" y2="259.153" gradientUnits="userSpaceOnUse">
<stop stop-color="#FDE1FF"/>
<stop offset="1" stop-color="#659BFF"/>
</linearGradient>
<linearGradient id="paint19_linear_1844_112583" x1="886.32" y1="17.0899" x2="870.157" y2="66.1551" gradientUnits="userSpaceOnUse">
<stop stop-color="#659BFF"/>
<stop offset="1" stop-color="#FDE1FF"/>
</linearGradient>
<linearGradient id="paint20_linear_1844_112583" x1="542.565" y1="49.5618" x2="536.207" y2="79.303" gradientUnits="userSpaceOnUse">
<stop stop-color="#659BFF"/>
<stop offset="1" stop-color="#FDE1FF"/>
</linearGradient>
<clipPath id="clip0_1844_112583">
<rect width="1800" height="548" fill="white" transform="translate(-180)"/>
</clipPath>
</defs>
</svg>